<mxfile host="app.diagrams.net" agent="Mozilla/5.0 (X11; Linux x86_64) AppleWebKit/537.36 (KHTML, like Gecko) Chrome/120.0.0.0 Safari/537.36" version="24.7.10">
  <diagram name="Page-1" id="v7hRu9W2ZMLHALvlENSr">
    <mxGraphModel dx="1687" dy="965" grid="1" gridSize="10" guides="1" tooltips="1" connect="1" arrows="1" fold="1" page="1" pageScale="1" pageWidth="850" pageHeight="1100" math="0" shadow="1">
      <root>
        <mxCell id="0" />
        <mxCell id="1" parent="0" />
        <mxCell id="MqZto4IUVNkv01rnJfku-19" value="" style="endArrow=none;html=1;rounded=0;exitX=1;exitY=0.5;exitDx=0;exitDy=0;" parent="1" edge="1">
          <mxGeometry width="50" height="50" relative="1" as="geometry">
            <mxPoint x="239" y="620" as="sourcePoint" />
            <mxPoint x="319" y="620" as="targetPoint" />
          </mxGeometry>
        </mxCell>
        <mxCell id="JrGl-My4ROwhSltA4jNE-127" value="" style="rounded=1;whiteSpace=wrap;html=1;gradientColor=#7EA6E0;fillColor=default;glass=1;" parent="1" vertex="1">
          <mxGeometry x="390" y="380" width="560" height="430" as="geometry" />
        </mxCell>
        <mxCell id="JrGl-My4ROwhSltA4jNE-5" value="" style="rounded=1;whiteSpace=wrap;html=1;fillColor=#B9E0A5;glass=1;" parent="1" vertex="1">
          <mxGeometry y="110" width="810" height="170" as="geometry" />
        </mxCell>
        <mxCell id="JrGl-My4ROwhSltA4jNE-1" value="Platform" style="rounded=0;whiteSpace=wrap;html=1;fontStyle=1" parent="1" vertex="1">
          <mxGeometry x="50" y="170" width="160" height="50" as="geometry" />
        </mxCell>
        <mxCell id="JrGl-My4ROwhSltA4jNE-2" value="Endorsement" style="rounded=0;whiteSpace=wrap;html=1;fontStyle=1" parent="1" vertex="1">
          <mxGeometry x="240" y="170" width="160" height="50" as="geometry" />
        </mxCell>
        <mxCell id="JrGl-My4ROwhSltA4jNE-3" value="Storage" style="rounded=0;whiteSpace=wrap;html=1;fontStyle=1" parent="1" vertex="1">
          <mxGeometry x="430" y="170" width="160" height="50" as="geometry" />
        </mxCell>
        <mxCell id="JrGl-My4ROwhSltA4jNE-4" value="Null" style="rounded=0;whiteSpace=wrap;html=1;fontStyle=1" parent="1" vertex="1">
          <mxGeometry x="620" y="170" width="160" height="50" as="geometry" />
        </mxCell>
        <mxCell id="JrGl-My4ROwhSltA4jNE-6" value="TPM 2.0" style="text;html=1;align=center;verticalAlign=middle;whiteSpace=wrap;rounded=0;fontStyle=1" parent="1" vertex="1">
          <mxGeometry x="740" y="250" width="60" height="30" as="geometry" />
        </mxCell>
        <mxCell id="JrGl-My4ROwhSltA4jNE-7" value="" style="endArrow=none;dashed=1;html=1;dashPattern=1 3;strokeWidth=2;rounded=0;exitX=0.5;exitY=0;exitDx=0;exitDy=0;entryX=0.5;entryY=1;entryDx=0;entryDy=0;" parent="1" source="JrGl-My4ROwhSltA4jNE-8" target="JrGl-My4ROwhSltA4jNE-2" edge="1">
          <mxGeometry width="50" height="50" relative="1" as="geometry">
            <mxPoint x="210" y="350" as="sourcePoint" />
            <mxPoint x="430" y="420" as="targetPoint" />
          </mxGeometry>
        </mxCell>
        <mxCell id="JrGl-My4ROwhSltA4jNE-8" value="&lt;b&gt;Endorsement Key&lt;/b&gt;&lt;div&gt;&lt;b&gt;&lt;br&gt;&lt;/b&gt;&lt;div&gt;&lt;br&gt;&lt;/div&gt;&lt;div style=&quot;text-align: left;&quot;&gt;Auth: None&lt;/div&gt;&lt;/div&gt;" style="rounded=0;whiteSpace=wrap;html=1;" parent="1" vertex="1">
          <mxGeometry y="310" width="120" height="70" as="geometry" />
        </mxCell>
        <mxCell id="JrGl-My4ROwhSltA4jNE-9" value="" style="endArrow=none;dashed=1;html=1;dashPattern=1 3;strokeWidth=2;rounded=0;entryX=0.5;entryY=1;entryDx=0;entryDy=0;exitX=0.5;exitY=0;exitDx=0;exitDy=0;" parent="1" source="JrGl-My4ROwhSltA4jNE-10" target="JrGl-My4ROwhSltA4jNE-3" edge="1">
          <mxGeometry width="50" height="50" relative="1" as="geometry">
            <mxPoint x="410" y="310" as="sourcePoint" />
            <mxPoint x="430" y="420" as="targetPoint" />
          </mxGeometry>
        </mxCell>
        <mxCell id="JrGl-My4ROwhSltA4jNE-10" value="&lt;b&gt;Trusted Platform&lt;/b&gt;&lt;div&gt;&lt;b&gt;Key Store (SRK)&lt;/b&gt;&lt;/div&gt;&lt;div&gt;&lt;br&gt;&lt;/div&gt;&lt;div style=&quot;text-align: left;&quot;&gt;Auth:&amp;nbsp; &amp;nbsp; &amp;nbsp;&lt;span style=&quot;background-color: initial;&quot;&gt;Owner&lt;/span&gt;&lt;/div&gt;&lt;div style=&quot;text-align: left;&quot;&gt;Auth:&amp;nbsp; &amp;nbsp; &amp;nbsp;PCR Policy&lt;/div&gt;&lt;div style=&quot;text-align: left;&quot;&gt;Handle: 0x81000002&lt;/div&gt;" style="rounded=0;whiteSpace=wrap;html=1;fillColor=#dae8fc;strokeColor=#6c8ebf;shadow=1;" parent="1" vertex="1">
          <mxGeometry x="250" y="450" width="130" height="100" as="geometry" />
        </mxCell>
        <mxCell id="JrGl-My4ROwhSltA4jNE-11" value="&lt;b&gt;PKCS #8&amp;nbsp;&lt;/b&gt;&lt;div&gt;&lt;b&gt;Key Store&lt;/b&gt;&lt;/div&gt;&lt;div&gt;&lt;br&gt;&lt;/div&gt;&lt;div style=&quot;text-align: left;&quot;&gt;Auth:&amp;nbsp; &amp;nbsp; &amp;nbsp; &amp;nbsp; &amp;nbsp;N/A&lt;/div&gt;&lt;div style=&quot;text-align: left;&quot;&gt;Auth:&amp;nbsp; &amp;nbsp; &amp;nbsp; &amp;nbsp; &amp;nbsp;&lt;span style=&quot;background-color: initial;&quot;&gt;N/A&lt;/span&gt;&lt;/div&gt;&lt;div style=&quot;text-align: left;&quot;&gt;Parent:&amp;nbsp; &amp;nbsp; &amp;nbsp;&amp;nbsp;&lt;span style=&quot;background-color: initial;&quot;&gt;N/A&lt;/span&gt;&lt;span style=&quot;background-color: initial;&quot;&gt;&amp;nbsp; &amp;nbsp; &amp;nbsp; &amp;nbsp;&lt;/span&gt;&lt;/div&gt;" style="rounded=0;whiteSpace=wrap;html=1;fillColor=#ffe6cc;strokeColor=#d79b00;shadow=1;" parent="1" vertex="1">
          <mxGeometry x="410" y="460" width="120" height="90" as="geometry" />
        </mxCell>
        <mxCell id="JrGl-My4ROwhSltA4jNE-12" value="" style="endArrow=none;dashed=1;html=1;dashPattern=1 3;strokeWidth=2;rounded=0;entryX=0.5;entryY=1;entryDx=0;entryDy=0;exitX=0.5;exitY=0;exitDx=0;exitDy=0;" parent="1" source="JrGl-My4ROwhSltA4jNE-11" target="JrGl-My4ROwhSltA4jNE-3" edge="1">
          <mxGeometry width="50" height="50" relative="1" as="geometry">
            <mxPoint x="390" y="340" as="sourcePoint" />
            <mxPoint x="487" y="230" as="targetPoint" />
          </mxGeometry>
        </mxCell>
        <mxCell id="JrGl-My4ROwhSltA4jNE-13" value="" style="endArrow=none;dashed=1;html=1;dashPattern=1 3;strokeWidth=2;rounded=0;entryX=0.5;entryY=1;entryDx=0;entryDy=0;exitX=0.5;exitY=0;exitDx=0;exitDy=0;" parent="1" target="JrGl-My4ROwhSltA4jNE-3" edge="1">
          <mxGeometry width="50" height="50" relative="1" as="geometry">
            <mxPoint x="620" y="440" as="sourcePoint" />
            <mxPoint x="430" y="420" as="targetPoint" />
          </mxGeometry>
        </mxCell>
        <mxCell id="JrGl-My4ROwhSltA4jNE-14" value="&lt;b&gt;PKCS #11&lt;/b&gt;&lt;div&gt;&lt;b&gt;Key Store&lt;/b&gt;&lt;/div&gt;&lt;div&gt;&lt;br&gt;&lt;/div&gt;&lt;div style=&quot;text-align: left;&quot;&gt;Auth:&amp;nbsp; &amp;nbsp; &amp;nbsp;Owner&lt;/div&gt;&lt;div style=&quot;text-align: left;&quot;&gt;Auth:&amp;nbsp; &amp;nbsp; &amp;nbsp;PCR Policy&lt;/div&gt;&lt;div style=&quot;text-align: left;&quot;&gt;Parent:&amp;nbsp;&lt;span style=&quot;background-color: initial;&quot;&gt;0x81000002&lt;/span&gt;&lt;/div&gt;" style="rounded=0;whiteSpace=wrap;html=1;fillColor=#F8CECC;strokeColor=#b85450;shadow=1;" parent="1" vertex="1">
          <mxGeometry x="560" y="460" width="120" height="90" as="geometry" />
        </mxCell>
        <mxCell id="JrGl-My4ROwhSltA4jNE-16" value="&lt;b&gt;TPM 2.0&lt;/b&gt;&lt;div&gt;&lt;b&gt;Key Store (SRK)&lt;/b&gt;&lt;/div&gt;&lt;div style=&quot;text-align: left;&quot;&gt;&lt;br&gt;&lt;/div&gt;&lt;div style=&quot;text-align: left;&quot;&gt;Auth:&amp;nbsp; &amp;nbsp; &amp;nbsp;&lt;span style=&quot;background-color: initial;&quot;&gt;Owner&lt;/span&gt;&lt;/div&gt;&lt;div style=&quot;text-align: left;&quot;&gt;Auth:&amp;nbsp; &amp;nbsp; &amp;nbsp;PCR Policy&lt;/div&gt;&lt;div style=&quot;text-align: left;&quot;&gt;Handle:&amp;nbsp;0x81000003&lt;/div&gt;" style="rounded=0;whiteSpace=wrap;html=1;fillColor=#d5e8d4;strokeColor=#82b366;shadow=1;" parent="1" vertex="1">
          <mxGeometry x="710" y="460" width="120" height="90" as="geometry" />
        </mxCell>
        <mxCell id="JrGl-My4ROwhSltA4jNE-17" value="" style="endArrow=none;dashed=1;html=1;dashPattern=1 3;strokeWidth=2;rounded=0;entryX=0.563;entryY=1;entryDx=0;entryDy=0;exitX=0.6;exitY=-0.017;exitDx=0;exitDy=0;entryPerimeter=0;exitPerimeter=0;" parent="1" target="JrGl-My4ROwhSltA4jNE-3" edge="1">
          <mxGeometry width="50" height="50" relative="1" as="geometry">
            <mxPoint x="783" y="438.98" as="sourcePoint" />
            <mxPoint x="520" y="230" as="targetPoint" />
          </mxGeometry>
        </mxCell>
        <mxCell id="JrGl-My4ROwhSltA4jNE-21" value="User PIN" style="rounded=0;whiteSpace=wrap;html=1;fillColor=#DBDBDB;strokeColor=#d79b00;fontStyle=1" parent="1" vertex="1">
          <mxGeometry x="120" y="590" width="120" height="60" as="geometry" />
        </mxCell>
        <mxCell id="JrGl-My4ROwhSltA4jNE-22" value="PKCS #11&lt;div&gt;Key Store&lt;br&gt;&lt;div&gt;PIN&lt;/div&gt;&lt;/div&gt;" style="rounded=0;whiteSpace=wrap;html=1;fillColor=#f8cecc;strokeColor=#b85450;fontStyle=1" parent="1" vertex="1">
          <mxGeometry x="120" y="660" width="120" height="60" as="geometry" />
        </mxCell>
        <mxCell id="JrGl-My4ROwhSltA4jNE-23" value="TPM 2.0&lt;div&gt;Key Store&lt;/div&gt;&lt;div&gt;PIN&lt;/div&gt;" style="rounded=0;whiteSpace=wrap;html=1;fillColor=#d5e8d4;strokeColor=#82b366;fontStyle=1" parent="1" vertex="1">
          <mxGeometry x="120" y="730" width="120" height="60" as="geometry" />
        </mxCell>
        <mxCell id="JrGl-My4ROwhSltA4jNE-24" value="&lt;b&gt;TCG Recommended&lt;/b&gt;&lt;div&gt;&lt;b&gt;Shared SRK&lt;/b&gt;&lt;/div&gt;&lt;div&gt;&lt;br&gt;&lt;/div&gt;&lt;div style=&quot;text-align: left;&quot;&gt;&amp;nbsp;Auth:&amp;nbsp; &amp;nbsp; None&lt;/div&gt;&lt;div style=&quot;text-align: left;&quot;&gt;Handle: 0x8000001&lt;/div&gt;" style="rounded=0;whiteSpace=wrap;html=1;" parent="1" vertex="1">
          <mxGeometry x="100" y="460" width="130" height="90" as="geometry" />
        </mxCell>
        <mxCell id="JrGl-My4ROwhSltA4jNE-25" value="" style="endArrow=none;dashed=1;html=1;dashPattern=1 3;strokeWidth=2;rounded=0;entryX=0.5;entryY=1;entryDx=0;entryDy=0;exitX=0.5;exitY=0;exitDx=0;exitDy=0;" parent="1" source="JrGl-My4ROwhSltA4jNE-24" target="JrGl-My4ROwhSltA4jNE-3" edge="1">
          <mxGeometry width="50" height="50" relative="1" as="geometry">
            <mxPoint x="330" y="500" as="sourcePoint" />
            <mxPoint x="520" y="230" as="targetPoint" />
          </mxGeometry>
        </mxCell>
        <mxCell id="JrGl-My4ROwhSltA4jNE-26" value="" style="endArrow=none;html=1;rounded=0;entryX=0.5;entryY=1;entryDx=0;entryDy=0;" parent="1" edge="1">
          <mxGeometry width="50" height="50" relative="1" as="geometry">
            <mxPoint x="322.5" y="900" as="sourcePoint" />
            <mxPoint x="317.5" y="550" as="targetPoint" />
          </mxGeometry>
        </mxCell>
        <mxCell id="JrGl-My4ROwhSltA4jNE-80" value="" style="group" parent="1" vertex="1" connectable="0">
          <mxGeometry x="730" y="550" width="70" height="221" as="geometry" />
        </mxCell>
        <mxCell id="JrGl-My4ROwhSltA4jNE-46" value="" style="points=[[0,0.5,0],[0.24,0,0],[0.5,0.28,0],[0.995,0.475,0],[0.5,0.72,0],[0.24,1,0]];verticalLabelPosition=bottom;sketch=0;html=1;verticalAlign=top;aspect=fixed;align=center;pointerEvents=1;shape=mxgraph.cisco19.key;fillColor=#005073;strokeColor=none;" parent="JrGl-My4ROwhSltA4jNE-80" vertex="1">
          <mxGeometry x="20" y="78.5" width="50" height="22.5" as="geometry" />
        </mxCell>
        <mxCell id="JrGl-My4ROwhSltA4jNE-47" value="" style="endArrow=none;html=1;rounded=0;exitX=0;exitY=0.5;exitDx=0;exitDy=0;exitPerimeter=0;" parent="JrGl-My4ROwhSltA4jNE-80" edge="1">
          <mxGeometry width="50" height="50" relative="1" as="geometry">
            <mxPoint x="20" y="91" as="sourcePoint" />
            <mxPoint y="60" as="targetPoint" />
            <Array as="points">
              <mxPoint y="91" />
            </Array>
          </mxGeometry>
        </mxCell>
        <mxCell id="JrGl-My4ROwhSltA4jNE-65" value="" style="points=[[0,0.5,0],[0.24,0,0],[0.5,0.28,0],[0.995,0.475,0],[0.5,0.72,0],[0.24,1,0]];verticalLabelPosition=bottom;sketch=0;html=1;verticalAlign=top;aspect=fixed;align=center;pointerEvents=1;shape=mxgraph.cisco19.key;fillColor=#005073;strokeColor=none;" parent="JrGl-My4ROwhSltA4jNE-80" vertex="1">
          <mxGeometry x="20" y="48.5" width="50" height="22.5" as="geometry" />
        </mxCell>
        <mxCell id="JrGl-My4ROwhSltA4jNE-66" value="" style="endArrow=none;html=1;rounded=0;exitX=0;exitY=0.5;exitDx=0;exitDy=0;exitPerimeter=0;" parent="JrGl-My4ROwhSltA4jNE-80" edge="1">
          <mxGeometry width="50" height="50" relative="1" as="geometry">
            <mxPoint x="20" y="61" as="sourcePoint" />
            <mxPoint y="30" as="targetPoint" />
            <Array as="points">
              <mxPoint y="61" />
            </Array>
          </mxGeometry>
        </mxCell>
        <mxCell id="JrGl-My4ROwhSltA4jNE-67" value="" style="points=[[0,0.5,0],[0.24,0,0],[0.5,0.28,0],[0.995,0.475,0],[0.5,0.72,0],[0.24,1,0]];verticalLabelPosition=bottom;sketch=0;html=1;verticalAlign=top;aspect=fixed;align=center;pointerEvents=1;shape=mxgraph.cisco19.key;fillColor=#005073;strokeColor=none;" parent="JrGl-My4ROwhSltA4jNE-80" vertex="1">
          <mxGeometry x="20" y="18.5" width="50" height="22.5" as="geometry" />
        </mxCell>
        <mxCell id="JrGl-My4ROwhSltA4jNE-68" value="" style="endArrow=none;html=1;rounded=0;exitX=0;exitY=0.5;exitDx=0;exitDy=0;exitPerimeter=0;" parent="JrGl-My4ROwhSltA4jNE-80" edge="1">
          <mxGeometry width="50" height="50" relative="1" as="geometry">
            <mxPoint x="20" y="31" as="sourcePoint" />
            <mxPoint as="targetPoint" />
            <Array as="points">
              <mxPoint y="31" />
            </Array>
          </mxGeometry>
        </mxCell>
        <mxCell id="JrGl-My4ROwhSltA4jNE-69" value="" style="points=[[0,0.5,0],[0.24,0,0],[0.5,0.28,0],[0.995,0.475,0],[0.5,0.72,0],[0.24,1,0]];verticalLabelPosition=bottom;sketch=0;html=1;verticalAlign=top;aspect=fixed;align=center;pointerEvents=1;shape=mxgraph.cisco19.key;fillColor=#005073;strokeColor=none;" parent="JrGl-My4ROwhSltA4jNE-80" vertex="1">
          <mxGeometry x="20" y="107.5" width="50" height="22.5" as="geometry" />
        </mxCell>
        <mxCell id="JrGl-My4ROwhSltA4jNE-70" value="" style="endArrow=none;html=1;rounded=0;exitX=0;exitY=0.5;exitDx=0;exitDy=0;exitPerimeter=0;" parent="JrGl-My4ROwhSltA4jNE-80" edge="1">
          <mxGeometry width="50" height="50" relative="1" as="geometry">
            <mxPoint x="20" y="120" as="sourcePoint" />
            <mxPoint y="89" as="targetPoint" />
            <Array as="points">
              <mxPoint y="120" />
            </Array>
          </mxGeometry>
        </mxCell>
        <mxCell id="JrGl-My4ROwhSltA4jNE-71" value="" style="points=[[0,0.5,0],[0.24,0,0],[0.5,0.28,0],[0.995,0.475,0],[0.5,0.72,0],[0.24,1,0]];verticalLabelPosition=bottom;sketch=0;html=1;verticalAlign=top;aspect=fixed;align=center;pointerEvents=1;shape=mxgraph.cisco19.key;fillColor=#005073;strokeColor=none;" parent="JrGl-My4ROwhSltA4jNE-80" vertex="1">
          <mxGeometry x="20" y="138.5" width="50" height="22.5" as="geometry" />
        </mxCell>
        <mxCell id="JrGl-My4ROwhSltA4jNE-72" value="" style="endArrow=none;html=1;rounded=0;exitX=0;exitY=0.5;exitDx=0;exitDy=0;exitPerimeter=0;" parent="JrGl-My4ROwhSltA4jNE-80" edge="1">
          <mxGeometry width="50" height="50" relative="1" as="geometry">
            <mxPoint x="20" y="151" as="sourcePoint" />
            <mxPoint y="120" as="targetPoint" />
            <Array as="points">
              <mxPoint y="151" />
            </Array>
          </mxGeometry>
        </mxCell>
        <mxCell id="JrGl-My4ROwhSltA4jNE-73" value="" style="points=[[0,0.5,0],[0.24,0,0],[0.5,0.28,0],[0.995,0.475,0],[0.5,0.72,0],[0.24,1,0]];verticalLabelPosition=bottom;sketch=0;html=1;verticalAlign=top;aspect=fixed;align=center;pointerEvents=1;shape=mxgraph.cisco19.key;fillColor=#005073;strokeColor=none;" parent="JrGl-My4ROwhSltA4jNE-80" vertex="1">
          <mxGeometry x="20" y="167.5" width="50" height="22.5" as="geometry" />
        </mxCell>
        <mxCell id="JrGl-My4ROwhSltA4jNE-74" value="" style="endArrow=none;html=1;rounded=0;exitX=0;exitY=0.5;exitDx=0;exitDy=0;exitPerimeter=0;" parent="JrGl-My4ROwhSltA4jNE-80" edge="1">
          <mxGeometry width="50" height="50" relative="1" as="geometry">
            <mxPoint x="20" y="180" as="sourcePoint" />
            <mxPoint y="149" as="targetPoint" />
            <Array as="points">
              <mxPoint y="180" />
            </Array>
          </mxGeometry>
        </mxCell>
        <mxCell id="JrGl-My4ROwhSltA4jNE-75" value="" style="points=[[0,0.5,0],[0.24,0,0],[0.5,0.28,0],[0.995,0.475,0],[0.5,0.72,0],[0.24,1,0]];verticalLabelPosition=bottom;sketch=0;html=1;verticalAlign=top;aspect=fixed;align=center;pointerEvents=1;shape=mxgraph.cisco19.key;fillColor=#005073;strokeColor=none;" parent="JrGl-My4ROwhSltA4jNE-80" vertex="1">
          <mxGeometry x="20" y="198.5" width="50" height="22.5" as="geometry" />
        </mxCell>
        <mxCell id="JrGl-My4ROwhSltA4jNE-76" value="" style="endArrow=none;html=1;rounded=0;exitX=0;exitY=0.5;exitDx=0;exitDy=0;exitPerimeter=0;" parent="JrGl-My4ROwhSltA4jNE-80" edge="1">
          <mxGeometry width="50" height="50" relative="1" as="geometry">
            <mxPoint x="20" y="211" as="sourcePoint" />
            <mxPoint y="180" as="targetPoint" />
            <Array as="points">
              <mxPoint y="211" />
            </Array>
          </mxGeometry>
        </mxCell>
        <mxCell id="JrGl-My4ROwhSltA4jNE-81" value="" style="group" parent="1" vertex="1" connectable="0">
          <mxGeometry x="580" y="550" width="70" height="221" as="geometry" />
        </mxCell>
        <mxCell id="JrGl-My4ROwhSltA4jNE-82" value="" style="points=[[0,0.5,0],[0.24,0,0],[0.5,0.28,0],[0.995,0.475,0],[0.5,0.72,0],[0.24,1,0]];verticalLabelPosition=bottom;sketch=0;html=1;verticalAlign=top;aspect=fixed;align=center;pointerEvents=1;shape=mxgraph.cisco19.key;fillColor=#005073;strokeColor=none;" parent="JrGl-My4ROwhSltA4jNE-81" vertex="1">
          <mxGeometry x="20" y="78.5" width="50" height="22.5" as="geometry" />
        </mxCell>
        <mxCell id="JrGl-My4ROwhSltA4jNE-83" value="" style="endArrow=none;html=1;rounded=0;exitX=0;exitY=0.5;exitDx=0;exitDy=0;exitPerimeter=0;" parent="JrGl-My4ROwhSltA4jNE-81" edge="1">
          <mxGeometry width="50" height="50" relative="1" as="geometry">
            <mxPoint x="20" y="91" as="sourcePoint" />
            <mxPoint y="60" as="targetPoint" />
            <Array as="points">
              <mxPoint y="91" />
            </Array>
          </mxGeometry>
        </mxCell>
        <mxCell id="JrGl-My4ROwhSltA4jNE-84" value="" style="points=[[0,0.5,0],[0.24,0,0],[0.5,0.28,0],[0.995,0.475,0],[0.5,0.72,0],[0.24,1,0]];verticalLabelPosition=bottom;sketch=0;html=1;verticalAlign=top;aspect=fixed;align=center;pointerEvents=1;shape=mxgraph.cisco19.key;fillColor=#005073;strokeColor=none;" parent="JrGl-My4ROwhSltA4jNE-81" vertex="1">
          <mxGeometry x="20" y="48.5" width="50" height="22.5" as="geometry" />
        </mxCell>
        <mxCell id="JrGl-My4ROwhSltA4jNE-85" value="" style="endArrow=none;html=1;rounded=0;exitX=0;exitY=0.5;exitDx=0;exitDy=0;exitPerimeter=0;" parent="JrGl-My4ROwhSltA4jNE-81" edge="1">
          <mxGeometry width="50" height="50" relative="1" as="geometry">
            <mxPoint x="20" y="61" as="sourcePoint" />
            <mxPoint y="30" as="targetPoint" />
            <Array as="points">
              <mxPoint y="61" />
            </Array>
          </mxGeometry>
        </mxCell>
        <mxCell id="JrGl-My4ROwhSltA4jNE-86" value="" style="points=[[0,0.5,0],[0.24,0,0],[0.5,0.28,0],[0.995,0.475,0],[0.5,0.72,0],[0.24,1,0]];verticalLabelPosition=bottom;sketch=0;html=1;verticalAlign=top;aspect=fixed;align=center;pointerEvents=1;shape=mxgraph.cisco19.key;fillColor=#005073;strokeColor=none;" parent="JrGl-My4ROwhSltA4jNE-81" vertex="1">
          <mxGeometry x="20" y="18.5" width="50" height="22.5" as="geometry" />
        </mxCell>
        <mxCell id="JrGl-My4ROwhSltA4jNE-87" value="" style="endArrow=none;html=1;rounded=0;exitX=0;exitY=0.5;exitDx=0;exitDy=0;exitPerimeter=0;" parent="JrGl-My4ROwhSltA4jNE-81" edge="1">
          <mxGeometry width="50" height="50" relative="1" as="geometry">
            <mxPoint x="20" y="31" as="sourcePoint" />
            <mxPoint as="targetPoint" />
            <Array as="points">
              <mxPoint y="31" />
            </Array>
          </mxGeometry>
        </mxCell>
        <mxCell id="JrGl-My4ROwhSltA4jNE-88" value="" style="points=[[0,0.5,0],[0.24,0,0],[0.5,0.28,0],[0.995,0.475,0],[0.5,0.72,0],[0.24,1,0]];verticalLabelPosition=bottom;sketch=0;html=1;verticalAlign=top;aspect=fixed;align=center;pointerEvents=1;shape=mxgraph.cisco19.key;fillColor=#005073;strokeColor=none;" parent="JrGl-My4ROwhSltA4jNE-81" vertex="1">
          <mxGeometry x="20" y="107.5" width="50" height="22.5" as="geometry" />
        </mxCell>
        <mxCell id="JrGl-My4ROwhSltA4jNE-89" value="" style="endArrow=none;html=1;rounded=0;exitX=0;exitY=0.5;exitDx=0;exitDy=0;exitPerimeter=0;" parent="JrGl-My4ROwhSltA4jNE-81" edge="1">
          <mxGeometry width="50" height="50" relative="1" as="geometry">
            <mxPoint x="20" y="120" as="sourcePoint" />
            <mxPoint y="89" as="targetPoint" />
            <Array as="points">
              <mxPoint y="120" />
            </Array>
          </mxGeometry>
        </mxCell>
        <mxCell id="JrGl-My4ROwhSltA4jNE-90" value="" style="points=[[0,0.5,0],[0.24,0,0],[0.5,0.28,0],[0.995,0.475,0],[0.5,0.72,0],[0.24,1,0]];verticalLabelPosition=bottom;sketch=0;html=1;verticalAlign=top;aspect=fixed;align=center;pointerEvents=1;shape=mxgraph.cisco19.key;fillColor=#005073;strokeColor=none;" parent="JrGl-My4ROwhSltA4jNE-81" vertex="1">
          <mxGeometry x="20" y="138.5" width="50" height="22.5" as="geometry" />
        </mxCell>
        <mxCell id="JrGl-My4ROwhSltA4jNE-91" value="" style="endArrow=none;html=1;rounded=0;exitX=0;exitY=0.5;exitDx=0;exitDy=0;exitPerimeter=0;" parent="JrGl-My4ROwhSltA4jNE-81" edge="1">
          <mxGeometry width="50" height="50" relative="1" as="geometry">
            <mxPoint x="20" y="151" as="sourcePoint" />
            <mxPoint y="120" as="targetPoint" />
            <Array as="points">
              <mxPoint y="151" />
            </Array>
          </mxGeometry>
        </mxCell>
        <mxCell id="JrGl-My4ROwhSltA4jNE-92" value="" style="points=[[0,0.5,0],[0.24,0,0],[0.5,0.28,0],[0.995,0.475,0],[0.5,0.72,0],[0.24,1,0]];verticalLabelPosition=bottom;sketch=0;html=1;verticalAlign=top;aspect=fixed;align=center;pointerEvents=1;shape=mxgraph.cisco19.key;fillColor=#005073;strokeColor=none;" parent="JrGl-My4ROwhSltA4jNE-81" vertex="1">
          <mxGeometry x="20" y="167.5" width="50" height="22.5" as="geometry" />
        </mxCell>
        <mxCell id="JrGl-My4ROwhSltA4jNE-93" value="" style="endArrow=none;html=1;rounded=0;exitX=0;exitY=0.5;exitDx=0;exitDy=0;exitPerimeter=0;" parent="JrGl-My4ROwhSltA4jNE-81" edge="1">
          <mxGeometry width="50" height="50" relative="1" as="geometry">
            <mxPoint x="20" y="180" as="sourcePoint" />
            <mxPoint y="149" as="targetPoint" />
            <Array as="points">
              <mxPoint y="180" />
            </Array>
          </mxGeometry>
        </mxCell>
        <mxCell id="JrGl-My4ROwhSltA4jNE-94" value="" style="points=[[0,0.5,0],[0.24,0,0],[0.5,0.28,0],[0.995,0.475,0],[0.5,0.72,0],[0.24,1,0]];verticalLabelPosition=bottom;sketch=0;html=1;verticalAlign=top;aspect=fixed;align=center;pointerEvents=1;shape=mxgraph.cisco19.key;fillColor=#005073;strokeColor=none;" parent="JrGl-My4ROwhSltA4jNE-81" vertex="1">
          <mxGeometry x="20" y="198.5" width="50" height="22.5" as="geometry" />
        </mxCell>
        <mxCell id="JrGl-My4ROwhSltA4jNE-95" value="" style="endArrow=none;html=1;rounded=0;exitX=0;exitY=0.5;exitDx=0;exitDy=0;exitPerimeter=0;" parent="JrGl-My4ROwhSltA4jNE-81" edge="1">
          <mxGeometry width="50" height="50" relative="1" as="geometry">
            <mxPoint x="20" y="211" as="sourcePoint" />
            <mxPoint y="180" as="targetPoint" />
            <Array as="points">
              <mxPoint y="211" />
            </Array>
          </mxGeometry>
        </mxCell>
        <mxCell id="JrGl-My4ROwhSltA4jNE-96" value="" style="group" parent="1" vertex="1" connectable="0">
          <mxGeometry x="430" y="550" width="70" height="221" as="geometry" />
        </mxCell>
        <mxCell id="JrGl-My4ROwhSltA4jNE-97" value="" style="points=[[0,0.5,0],[0.24,0,0],[0.5,0.28,0],[0.995,0.475,0],[0.5,0.72,0],[0.24,1,0]];verticalLabelPosition=bottom;sketch=0;html=1;verticalAlign=top;aspect=fixed;align=center;pointerEvents=1;shape=mxgraph.cisco19.key;fillColor=#005073;strokeColor=none;" parent="JrGl-My4ROwhSltA4jNE-96" vertex="1">
          <mxGeometry x="20" y="78.5" width="50" height="22.5" as="geometry" />
        </mxCell>
        <mxCell id="JrGl-My4ROwhSltA4jNE-98" value="" style="endArrow=none;html=1;rounded=0;exitX=0;exitY=0.5;exitDx=0;exitDy=0;exitPerimeter=0;" parent="JrGl-My4ROwhSltA4jNE-96" edge="1">
          <mxGeometry width="50" height="50" relative="1" as="geometry">
            <mxPoint x="20" y="91" as="sourcePoint" />
            <mxPoint y="60" as="targetPoint" />
            <Array as="points">
              <mxPoint y="91" />
            </Array>
          </mxGeometry>
        </mxCell>
        <mxCell id="JrGl-My4ROwhSltA4jNE-99" value="" style="points=[[0,0.5,0],[0.24,0,0],[0.5,0.28,0],[0.995,0.475,0],[0.5,0.72,0],[0.24,1,0]];verticalLabelPosition=bottom;sketch=0;html=1;verticalAlign=top;aspect=fixed;align=center;pointerEvents=1;shape=mxgraph.cisco19.key;fillColor=#005073;strokeColor=none;" parent="JrGl-My4ROwhSltA4jNE-96" vertex="1">
          <mxGeometry x="20" y="48.5" width="50" height="22.5" as="geometry" />
        </mxCell>
        <mxCell id="JrGl-My4ROwhSltA4jNE-100" value="" style="endArrow=none;html=1;rounded=0;exitX=0;exitY=0.5;exitDx=0;exitDy=0;exitPerimeter=0;" parent="JrGl-My4ROwhSltA4jNE-96" edge="1">
          <mxGeometry width="50" height="50" relative="1" as="geometry">
            <mxPoint x="20" y="61" as="sourcePoint" />
            <mxPoint y="30" as="targetPoint" />
            <Array as="points">
              <mxPoint y="61" />
            </Array>
          </mxGeometry>
        </mxCell>
        <mxCell id="JrGl-My4ROwhSltA4jNE-101" value="" style="points=[[0,0.5,0],[0.24,0,0],[0.5,0.28,0],[0.995,0.475,0],[0.5,0.72,0],[0.24,1,0]];verticalLabelPosition=bottom;sketch=0;html=1;verticalAlign=top;aspect=fixed;align=center;pointerEvents=1;shape=mxgraph.cisco19.key;fillColor=#005073;strokeColor=none;" parent="JrGl-My4ROwhSltA4jNE-96" vertex="1">
          <mxGeometry x="20" y="18.5" width="50" height="22.5" as="geometry" />
        </mxCell>
        <mxCell id="JrGl-My4ROwhSltA4jNE-102" value="" style="endArrow=none;html=1;rounded=0;exitX=0;exitY=0.5;exitDx=0;exitDy=0;exitPerimeter=0;" parent="JrGl-My4ROwhSltA4jNE-96" edge="1">
          <mxGeometry width="50" height="50" relative="1" as="geometry">
            <mxPoint x="20" y="31" as="sourcePoint" />
            <mxPoint as="targetPoint" />
            <Array as="points">
              <mxPoint y="31" />
            </Array>
          </mxGeometry>
        </mxCell>
        <mxCell id="JrGl-My4ROwhSltA4jNE-103" value="" style="points=[[0,0.5,0],[0.24,0,0],[0.5,0.28,0],[0.995,0.475,0],[0.5,0.72,0],[0.24,1,0]];verticalLabelPosition=bottom;sketch=0;html=1;verticalAlign=top;aspect=fixed;align=center;pointerEvents=1;shape=mxgraph.cisco19.key;fillColor=#005073;strokeColor=none;" parent="JrGl-My4ROwhSltA4jNE-96" vertex="1">
          <mxGeometry x="20" y="107.5" width="50" height="22.5" as="geometry" />
        </mxCell>
        <mxCell id="JrGl-My4ROwhSltA4jNE-104" value="" style="endArrow=none;html=1;rounded=0;exitX=0;exitY=0.5;exitDx=0;exitDy=0;exitPerimeter=0;" parent="JrGl-My4ROwhSltA4jNE-96" edge="1">
          <mxGeometry width="50" height="50" relative="1" as="geometry">
            <mxPoint x="20" y="120" as="sourcePoint" />
            <mxPoint y="89" as="targetPoint" />
            <Array as="points">
              <mxPoint y="120" />
            </Array>
          </mxGeometry>
        </mxCell>
        <mxCell id="JrGl-My4ROwhSltA4jNE-105" value="" style="points=[[0,0.5,0],[0.24,0,0],[0.5,0.28,0],[0.995,0.475,0],[0.5,0.72,0],[0.24,1,0]];verticalLabelPosition=bottom;sketch=0;html=1;verticalAlign=top;aspect=fixed;align=center;pointerEvents=1;shape=mxgraph.cisco19.key;fillColor=#005073;strokeColor=none;" parent="JrGl-My4ROwhSltA4jNE-96" vertex="1">
          <mxGeometry x="20" y="138.5" width="50" height="22.5" as="geometry" />
        </mxCell>
        <mxCell id="JrGl-My4ROwhSltA4jNE-106" value="" style="endArrow=none;html=1;rounded=0;exitX=0;exitY=0.5;exitDx=0;exitDy=0;exitPerimeter=0;" parent="JrGl-My4ROwhSltA4jNE-96" edge="1">
          <mxGeometry width="50" height="50" relative="1" as="geometry">
            <mxPoint x="20" y="151" as="sourcePoint" />
            <mxPoint y="120" as="targetPoint" />
            <Array as="points">
              <mxPoint y="151" />
            </Array>
          </mxGeometry>
        </mxCell>
        <mxCell id="JrGl-My4ROwhSltA4jNE-107" value="" style="points=[[0,0.5,0],[0.24,0,0],[0.5,0.28,0],[0.995,0.475,0],[0.5,0.72,0],[0.24,1,0]];verticalLabelPosition=bottom;sketch=0;html=1;verticalAlign=top;aspect=fixed;align=center;pointerEvents=1;shape=mxgraph.cisco19.key;fillColor=#005073;strokeColor=none;" parent="JrGl-My4ROwhSltA4jNE-96" vertex="1">
          <mxGeometry x="20" y="167.5" width="50" height="22.5" as="geometry" />
        </mxCell>
        <mxCell id="JrGl-My4ROwhSltA4jNE-108" value="" style="endArrow=none;html=1;rounded=0;exitX=0;exitY=0.5;exitDx=0;exitDy=0;exitPerimeter=0;" parent="JrGl-My4ROwhSltA4jNE-96" edge="1">
          <mxGeometry width="50" height="50" relative="1" as="geometry">
            <mxPoint x="20" y="180" as="sourcePoint" />
            <mxPoint y="149" as="targetPoint" />
            <Array as="points">
              <mxPoint y="180" />
            </Array>
          </mxGeometry>
        </mxCell>
        <mxCell id="JrGl-My4ROwhSltA4jNE-109" value="" style="points=[[0,0.5,0],[0.24,0,0],[0.5,0.28,0],[0.995,0.475,0],[0.5,0.72,0],[0.24,1,0]];verticalLabelPosition=bottom;sketch=0;html=1;verticalAlign=top;aspect=fixed;align=center;pointerEvents=1;shape=mxgraph.cisco19.key;fillColor=#005073;strokeColor=none;" parent="JrGl-My4ROwhSltA4jNE-96" vertex="1">
          <mxGeometry x="20" y="198.5" width="50" height="22.5" as="geometry" />
        </mxCell>
        <mxCell id="JrGl-My4ROwhSltA4jNE-110" value="" style="endArrow=none;html=1;rounded=0;exitX=0;exitY=0.5;exitDx=0;exitDy=0;exitPerimeter=0;" parent="JrGl-My4ROwhSltA4jNE-96" edge="1">
          <mxGeometry width="50" height="50" relative="1" as="geometry">
            <mxPoint x="20" y="211" as="sourcePoint" />
            <mxPoint y="180" as="targetPoint" />
            <Array as="points">
              <mxPoint y="211" />
            </Array>
          </mxGeometry>
        </mxCell>
        <mxCell id="JrGl-My4ROwhSltA4jNE-114" value="&lt;div&gt;Security Officer PIN / Hierarchy Auth&lt;/div&gt;" style="whiteSpace=wrap;html=1;shape=mxgraph.basic.roundRectCallout;dx=30;dy=15;size=5;boundedLbl=1;fillColor=#f5f5f5;gradientColor=#b3b3b3;strokeColor=#666666;" parent="1" vertex="1">
          <mxGeometry x="680" y="70" width="130" height="60" as="geometry" />
        </mxCell>
        <mxCell id="JrGl-My4ROwhSltA4jNE-119" value="&lt;div&gt;User PIN&lt;/div&gt;" style="whiteSpace=wrap;html=1;shape=mxgraph.basic.roundRectCallout;dx=30;dy=15;size=5;boundedLbl=1;fillColor=#f5f5f5;gradientColor=#b3b3b3;strokeColor=#666666;flipH=1;" parent="1" vertex="1">
          <mxGeometry x="185" y="410" width="90" height="50" as="geometry" />
        </mxCell>
        <mxCell id="JrGl-My4ROwhSltA4jNE-122" value="&lt;div&gt;User PIN&lt;/div&gt;" style="whiteSpace=wrap;html=1;shape=mxgraph.basic.roundRectCallout;dx=30;dy=15;size=5;boundedLbl=1;fillColor=#f5f5f5;gradientColor=#b3b3b3;strokeColor=#666666;" parent="1" vertex="1">
          <mxGeometry x="702" y="415" width="90" height="50" as="geometry" />
        </mxCell>
        <mxCell id="JrGl-My4ROwhSltA4jNE-125" value="Platform PCR:0xcf62961d1244abb14fcb482a23d88bf6eac164d01462b17b97fe5a037d4cb5b6&amp;nbsp;" style="text;html=1;align=center;verticalAlign=middle;resizable=0;points=[];autosize=1;strokeColor=none;fillColor=none;fontStyle=1" parent="1" vertex="1">
          <mxGeometry x="10" y="120" width="530" height="30" as="geometry" />
        </mxCell>
        <mxCell id="MqZto4IUVNkv01rnJfku-1" value="&lt;b&gt;Initial Attestation Key&lt;/b&gt;&lt;div&gt;&lt;b&gt;&lt;br&gt;&lt;/b&gt;&lt;div style=&quot;text-align: left;&quot;&gt;&amp;nbsp; Auth: None&lt;/div&gt;&lt;/div&gt;" style="rounded=0;whiteSpace=wrap;html=1;" parent="1" vertex="1">
          <mxGeometry x="130" y="310" width="120" height="70" as="geometry" />
        </mxCell>
        <mxCell id="MqZto4IUVNkv01rnJfku-2" value="" style="endArrow=none;dashed=1;html=1;dashPattern=1 3;strokeWidth=2;rounded=0;exitX=0.5;exitY=0;exitDx=0;exitDy=0;" parent="1" source="MqZto4IUVNkv01rnJfku-1" edge="1">
          <mxGeometry width="50" height="50" relative="1" as="geometry">
            <mxPoint x="70" y="320" as="sourcePoint" />
            <mxPoint x="320" y="220" as="targetPoint" />
          </mxGeometry>
        </mxCell>
        <mxCell id="MqZto4IUVNkv01rnJfku-3" value="&lt;b&gt;Initial Device ID&lt;/b&gt;&lt;div&gt;&lt;b&gt;Key&lt;/b&gt;&lt;div style=&quot;text-align: left;&quot;&gt;&lt;span style=&quot;background-color: initial;&quot;&gt;&lt;br&gt;&lt;/span&gt;&lt;/div&gt;&lt;div style=&quot;text-align: left;&quot;&gt;&lt;span style=&quot;background-color: initial;&quot;&gt;Auth: None&lt;/span&gt;&lt;br&gt;&lt;/div&gt;&lt;/div&gt;" style="rounded=0;whiteSpace=wrap;html=1;" parent="1" vertex="1">
          <mxGeometry x="260" y="310" width="120" height="70" as="geometry" />
        </mxCell>
        <mxCell id="MqZto4IUVNkv01rnJfku-4" value="" style="endArrow=none;dashed=1;html=1;dashPattern=1 3;strokeWidth=2;rounded=0;exitX=0.569;exitY=-0.046;exitDx=0;exitDy=0;exitPerimeter=0;entryX=0.5;entryY=1;entryDx=0;entryDy=0;" parent="1" source="MqZto4IUVNkv01rnJfku-3" target="JrGl-My4ROwhSltA4jNE-2" edge="1">
          <mxGeometry width="50" height="50" relative="1" as="geometry">
            <mxPoint x="200" y="320" as="sourcePoint" />
            <mxPoint x="283" y="240" as="targetPoint" />
          </mxGeometry>
        </mxCell>
        <mxCell id="MqZto4IUVNkv01rnJfku-7" value="" style="group" parent="1" vertex="1" connectable="0">
          <mxGeometry x="860" y="450" width="128" height="128" as="geometry" />
        </mxCell>
        <mxCell id="JrGl-My4ROwhSltA4jNE-131" value="" style="shape=image;html=1;verticalAlign=top;verticalLabelPosition=bottom;labelBackgroundColor=#ffffff;imageAspect=0;aspect=fixed;image=https://cdn3.iconfinder.com/data/icons/lovely/PNG/128/Login-Key.png;flipH=1;" parent="MqZto4IUVNkv01rnJfku-7" vertex="1">
          <mxGeometry width="128" height="128" as="geometry" />
        </mxCell>
        <mxCell id="JrGl-My4ROwhSltA4jNE-132" value="Keychain" style="text;html=1;align=center;verticalAlign=middle;whiteSpace=wrap;rounded=0;fontStyle=1" parent="MqZto4IUVNkv01rnJfku-7" vertex="1">
          <mxGeometry x="10" y="80" width="60" height="30" as="geometry" />
        </mxCell>
        <mxCell id="MqZto4IUVNkv01rnJfku-8" value="Application&amp;nbsp;&lt;div&gt;Secrets&lt;/div&gt;" style="rounded=0;whiteSpace=wrap;html=1;fillColor=#99CCFF;strokeColor=#82b366;fontStyle=1" parent="1" vertex="1">
          <mxGeometry x="120" y="801" width="120" height="60" as="geometry" />
        </mxCell>
        <mxCell id="MqZto4IUVNkv01rnJfku-11" value="Passwords" style="rounded=0;whiteSpace=wrap;html=1;fillColor=#EA6B66;strokeColor=#82b366;fontStyle=1" parent="1" vertex="1">
          <mxGeometry x="120" y="871" width="120" height="60" as="geometry" />
        </mxCell>
        <mxCell id="MqZto4IUVNkv01rnJfku-15" value="" style="endArrow=none;html=1;rounded=0;entryX=1;entryY=0.5;entryDx=0;entryDy=0;" parent="1" target="JrGl-My4ROwhSltA4jNE-23" edge="1">
          <mxGeometry width="50" height="50" relative="1" as="geometry">
            <mxPoint x="320" y="760" as="sourcePoint" />
            <mxPoint x="300" y="690" as="targetPoint" />
          </mxGeometry>
        </mxCell>
        <mxCell id="MqZto4IUVNkv01rnJfku-16" value="" style="endArrow=none;html=1;rounded=0;exitX=1;exitY=0.5;exitDx=0;exitDy=0;" parent="1" source="JrGl-My4ROwhSltA4jNE-22" edge="1">
          <mxGeometry width="50" height="50" relative="1" as="geometry">
            <mxPoint x="270" y="790" as="sourcePoint" />
            <mxPoint x="320" y="690" as="targetPoint" />
          </mxGeometry>
        </mxCell>
        <mxCell id="MqZto4IUVNkv01rnJfku-17" value="" style="endArrow=none;html=1;rounded=0;exitX=1;exitY=0.5;exitDx=0;exitDy=0;endSize=6;" parent="1" edge="1">
          <mxGeometry width="50" height="50" relative="1" as="geometry">
            <mxPoint x="241" y="831" as="sourcePoint" />
            <mxPoint x="321" y="830" as="targetPoint" />
          </mxGeometry>
        </mxCell>
        <mxCell id="MqZto4IUVNkv01rnJfku-18" value="" style="endArrow=none;html=1;rounded=0;entryX=1;entryY=0.5;entryDx=0;entryDy=0;" parent="1" target="MqZto4IUVNkv01rnJfku-11" edge="1">
          <mxGeometry width="50" height="50" relative="1" as="geometry">
            <mxPoint x="323" y="900" as="sourcePoint" />
            <mxPoint x="243" y="901" as="targetPoint" />
          </mxGeometry>
        </mxCell>
        <mxCell id="MqZto4IUVNkv01rnJfku-20" value="Trusted Platform Provisioned State" style="text;html=1;align=center;verticalAlign=middle;whiteSpace=wrap;rounded=0;fontSize=22;fontStyle=1;fontColor=#3333FF;fontFamily=Verdana;" parent="1" vertex="1">
          <mxGeometry x="50" y="40" width="455" height="30" as="geometry" />
        </mxCell>
        <mxCell id="MqZto4IUVNkv01rnJfku-21" value="Certificate&lt;div&gt;Authority&lt;/div&gt;" style="sketch=0;pointerEvents=1;shadow=0;dashed=0;html=1;strokeColor=none;fillColor=#080808;labelPosition=center;verticalLabelPosition=bottom;verticalAlign=top;outlineConnect=0;align=center;shape=mxgraph.office.servers.certificate_authority;fontStyle=1" parent="1" vertex="1">
          <mxGeometry x="880" y="610" width="46" height="59" as="geometry" />
        </mxCell>
        <mxCell id="K4Aptjcz6w3PYa67e3hM-1" value="&lt;div&gt;User PIN&lt;/div&gt;" style="whiteSpace=wrap;html=1;shape=mxgraph.basic.roundRectCallout;dx=30;dy=15;size=5;boundedLbl=1;fillColor=#f5f5f5;gradientColor=#b3b3b3;strokeColor=#666666;" vertex="1" parent="1">
          <mxGeometry x="551" y="415" width="90" height="50" as="geometry" />
        </mxCell>
        <mxCell id="K4Aptjcz6w3PYa67e3hM-3" value="&lt;div&gt;&lt;b&gt;&lt;br&gt;&lt;/b&gt;&lt;/div&gt;&lt;b&gt;PKCS #8 Secondary&lt;/b&gt;&lt;div&gt;&lt;b&gt;Key Passwords&lt;/b&gt;&lt;/div&gt;&lt;div&gt;&lt;br&gt;&lt;/div&gt;&lt;div style=&quot;text-align: left;&quot;&gt;&amp;nbsp; Auth:&amp;nbsp; &amp;nbsp; &amp;nbsp; Password&lt;/div&gt;&lt;div style=&quot;text-align: left;&quot;&gt;&amp;nbsp; Auth:&amp;nbsp; &amp;nbsp; &amp;nbsp; PCR Policy&lt;/div&gt;&lt;div style=&quot;text-align: left;&quot;&gt;&amp;nbsp; Parent:&amp;nbsp; &amp;nbsp;0x81000002&lt;span style=&quot;background-color: initial;&quot;&gt;&amp;nbsp; &amp;nbsp; &amp;nbsp;&lt;/span&gt;&lt;/div&gt;" style="rounded=0;whiteSpace=wrap;html=1;fillColor=#ffe6cc;strokeColor=#d79b00;shadow=1;" vertex="1" parent="1">
          <mxGeometry x="450" y="778" width="130" height="106" as="geometry" />
        </mxCell>
        <mxCell id="K4Aptjcz6w3PYa67e3hM-4" value="&lt;div&gt;&lt;b&gt;&lt;br&gt;&lt;/b&gt;&lt;/div&gt;&lt;b&gt;TPM 2.0 Secondary&lt;/b&gt;&lt;div&gt;&lt;b&gt;Key Passwords&lt;/b&gt;&lt;/div&gt;&lt;div&gt;&lt;br&gt;&lt;/div&gt;&lt;div style=&quot;text-align: left;&quot;&gt;&amp;nbsp; Auth:&amp;nbsp; &amp;nbsp; &amp;nbsp; Password&lt;/div&gt;&lt;div style=&quot;text-align: left;&quot;&gt;&amp;nbsp; Auth:&amp;nbsp; &amp;nbsp; &amp;nbsp; PCR Policy&lt;/div&gt;&lt;div style=&quot;text-align: left;&quot;&gt;&amp;nbsp; Parent:&amp;nbsp; &amp;nbsp;0x81000002&lt;span style=&quot;background-color: initial;&quot;&gt;&amp;nbsp; &amp;nbsp; &amp;nbsp;&lt;/span&gt;&lt;/div&gt;" style="rounded=0;whiteSpace=wrap;html=1;fillColor=#D5E8D4;strokeColor=#d79b00;shadow=1;" vertex="1" parent="1">
          <mxGeometry x="770" y="778" width="130" height="106" as="geometry" />
        </mxCell>
        <mxCell id="K4Aptjcz6w3PYa67e3hM-5" value="&lt;div&gt;&lt;b&gt;&lt;br&gt;&lt;/b&gt;&lt;/div&gt;&lt;b&gt;PKCS #11 Secondary&lt;/b&gt;&lt;div&gt;&lt;b&gt;Key Passwords&lt;/b&gt;&lt;/div&gt;&lt;div&gt;&lt;br&gt;&lt;/div&gt;&lt;div&gt;&lt;br&gt;&lt;/div&gt;&lt;div style=&quot;text-align: left;&quot;&gt;&amp;nbsp; &amp;nbsp; &amp;nbsp;UNSUPPORTED&lt;/div&gt;&lt;div style=&quot;text-align: left;&quot;&gt;&lt;span style=&quot;background-color: initial;&quot;&gt;&amp;nbsp; &amp;nbsp;&lt;/span&gt;&lt;br&gt;&lt;/div&gt;" style="rounded=0;whiteSpace=wrap;html=1;fillColor=#F8CECC;strokeColor=#d79b00;shadow=1;" vertex="1" parent="1">
          <mxGeometry x="610" y="778" width="130" height="106" as="geometry" />
        </mxCell>
      </root>
    </mxGraphModel>
  </diagram>
</mxfile>
